<svg width="424" height="382" viewBox="0 0 424 382" fill="none" xmlns="http://www.w3.org/2000/svg">
<g filter="url(#filter0_f_240_5461)">
<path d="M108.148 214.763C162.548 214.763 206.648 170.439 206.648 115.763C206.648 61.0868 162.548 16.763 108.148 16.763C53.7479 16.763 9.64795 61.0868 9.64795 115.763C9.64795 170.439 53.7479 214.763 108.148 214.763Z" fill="#FA9E42"/>
<g filter="url(#filter1_f_240_5461)">
<path d="M101.03 101.684C133.767 84.2963 152.077 54.7096 141.928 35.6003C131.778 16.4911 97.0115 15.0956 64.2749 32.4835C31.5383 49.8713 13.228 79.4581 23.3778 98.5673C33.5275 117.677 68.2938 119.072 101.03 101.684Z" fill="#F8E36F"/>
</g>
<path d="M126.978 204.294C127.694 204.312 134.96 229.542 134.96 239.346C134.96 249.15 131.386 257.099 126.978 257.099C122.57 257.099 118.996 249.151 118.996 239.347C118.996 229.543 126.262 204.277 126.978 204.294Z" fill="#42A0F0"/>
<path d="M123.121 242.346C124.288 242.703 125.823 241.06 126.552 238.677C127.281 236.294 126.926 234.073 125.76 233.717C124.594 233.36 123.058 235.003 122.329 237.386C121.6 239.769 121.955 241.99 123.121 242.346Z" fill="white"/>
<path d="M182.369 204.294C183.085 204.312 190.351 229.542 190.351 239.346C190.351 249.15 186.777 257.099 182.369 257.099C177.961 257.099 174.387 249.151 174.387 239.347C174.387 229.543 181.653 204.277 182.369 204.294Z" fill="#42A0F0"/>
<path d="M178.512 242.346C179.679 242.703 181.215 241.06 181.943 238.677C182.672 236.294 182.317 234.073 181.151 233.717C179.985 233.36 178.449 235.003 177.72 237.386C176.992 239.769 177.346 241.99 178.512 242.346Z" fill="white"/>
<path d="M241.796 204.294C242.512 204.312 249.778 229.542 249.778 239.346C249.778 249.15 246.204 257.099 241.796 257.099C237.388 257.099 233.814 249.151 233.814 239.347C233.814 229.543 241.08 204.277 241.796 204.294Z" fill="#42A0F0"/>
<path d="M237.939 242.346C239.105 242.703 240.641 241.06 241.37 238.677C242.098 236.294 241.744 234.073 240.578 233.717C239.411 233.36 237.875 235.003 237.147 237.386C236.418 239.769 236.773 241.99 237.939 242.346Z" fill="white"/>
<path d="M296.683 201.294C297.399 201.312 304.665 226.542 304.665 236.346C304.665 246.15 301.091 254.099 296.683 254.099C292.275 254.099 288.701 246.151 288.701 236.347C288.701 226.543 295.967 201.277 296.683 201.294Z" fill="#42A0F0"/>
<path d="M292.826 239.346C293.993 239.703 295.529 238.06 296.257 235.677C296.986 233.294 296.631 231.073 295.465 230.717C294.299 230.36 292.763 232.003 292.034 234.386C291.306 236.769 291.66 238.99 292.826 239.346Z" fill="white"/>
<path d="M210.335 271.294C211.051 271.312 218.317 296.542 218.317 306.346C218.317 316.15 214.743 324.099 210.335 324.099C205.927 324.099 202.353 316.151 202.353 306.347C202.353 296.543 209.619 271.277 210.335 271.294Z" fill="#42A0F0"/>
<path d="M206.478 309.346C207.644 309.703 209.18 308.06 209.909 305.677C210.638 303.294 210.283 301.073 209.117 300.717C207.95 300.36 206.415 302.003 205.686 304.386C204.957 306.769 205.312 308.99 206.478 309.346Z" fill="white"/>
<path d="M269.761 271.294C270.477 271.312 277.743 296.542 277.743 306.346C277.743 316.15 274.169 324.099 269.761 324.099C265.353 324.099 261.779 316.151 261.779 306.347C261.779 296.543 269.045 271.277 269.761 271.294Z" fill="#42A0F0"/>
<path d="M265.904 309.346C267.07 309.703 268.606 308.06 269.335 305.677C270.064 303.294 269.709 301.073 268.543 300.717C267.377 300.36 265.841 302.003 265.112 304.386C264.383 306.769 264.738 308.99 265.904 309.346Z" fill="white"/>
<path d="M332.683 271.294C333.399 271.312 340.665 296.542 340.665 306.346C340.665 316.15 337.091 324.099 332.683 324.099C328.275 324.099 324.701 316.151 324.701 306.347C324.701 296.543 331.967 271.277 332.683 271.294Z" fill="#42A0F0"/>
<path d="M328.826 309.346C329.993 309.703 331.529 308.06 332.257 305.677C332.986 303.294 332.631 301.073 331.465 300.717C330.299 300.36 328.763 302.003 328.034 304.386C327.306 306.769 327.66 308.99 328.826 309.346Z" fill="white"/>
<path d="M150.909 274.294C151.625 274.312 158.891 299.542 158.891 309.346C158.891 319.15 155.317 327.099 150.909 327.099C146.501 327.099 142.927 319.151 142.927 309.347C142.927 299.543 150.193 274.277 150.909 274.294Z" fill="#42A0F0"/>
<path d="M147.052 312.346C148.218 312.703 149.754 311.06 150.483 308.677C151.212 306.294 150.857 304.073 149.691 303.717C148.524 303.36 146.988 305.003 146.26 307.386C145.531 309.769 145.886 311.99 147.052 312.346Z" fill="white"/>
<path d="M94.9781 271.294C95.6941 271.312 102.96 296.542 102.96 306.346C102.96 316.15 99.3861 324.099 94.9781 324.099C90.5701 324.099 86.9961 316.151 86.9961 306.347C86.9961 296.543 94.2621 271.277 94.9781 271.294Z" fill="#42A0F0"/>
<path d="M91.1214 309.346C92.2875 309.703 93.8235 308.06 94.5521 305.677C95.2806 303.294 94.9259 301.073 93.7597 300.717C92.5936 300.36 91.0576 302.003 90.329 304.386C89.6004 306.769 89.9552 308.99 91.1214 309.346Z" fill="white"/>
<path d="M126.978 324.294C127.694 324.312 134.96 349.542 134.96 359.346C134.96 369.15 131.386 377.099 126.978 377.099C122.57 377.099 118.996 369.151 118.996 359.347C118.996 349.543 126.262 324.277 126.978 324.294Z" fill="#42A0F0"/>
<path d="M123.121 362.346C124.288 362.703 125.823 361.06 126.552 358.677C127.281 356.294 126.926 354.073 125.76 353.717C124.594 353.36 123.058 355.003 122.329 357.386C121.6 359.769 121.955 361.99 123.121 362.346Z" fill="white"/>
<path d="M182.369 324.294C183.085 324.312 190.351 349.542 190.351 359.346C190.351 369.15 186.777 377.099 182.369 377.099C177.961 377.099 174.387 369.151 174.387 359.347C174.387 349.543 181.653 324.277 182.369 324.294Z" fill="#42A0F0"/>
<path d="M178.512 362.346C179.679 362.703 181.215 361.06 181.943 358.677C182.672 356.294 182.317 354.073 181.151 353.717C179.985 353.36 178.449 355.003 177.72 357.386C176.992 359.769 177.346 361.99 178.512 362.346Z" fill="white"/>
<path d="M241.796 324.294C242.512 324.312 249.778 349.542 249.778 359.346C249.778 369.15 246.204 377.099 241.796 377.099C237.388 377.099 233.814 369.151 233.814 359.347C233.814 349.543 241.08 324.277 241.796 324.294Z" fill="#42A0F0"/>
<path d="M237.939 362.346C239.105 362.703 240.641 361.06 241.37 358.677C242.098 356.294 241.744 354.073 240.578 353.717C239.411 353.36 237.875 355.003 237.147 357.386C236.418 359.769 236.773 361.99 237.939 362.346Z" fill="white"/>
<path d="M296.683 324.294C297.399 324.312 304.665 349.542 304.665 359.346C304.665 369.15 301.091 377.099 296.683 377.099C292.275 377.099 288.701 369.151 288.701 359.347C288.701 349.543 295.967 324.277 296.683 324.294Z" fill="#42A0F0"/>
<path d="M292.826 362.346C293.993 362.703 295.529 361.06 296.257 358.677C296.986 356.294 296.631 354.073 295.465 353.717C294.299 353.36 292.763 355.003 292.034 357.386C291.306 359.769 291.66 361.99 292.826 362.346Z" fill="white"/>
<g filter="url(#filter2_d_240_5461)">
<path d="M293.345 281.937H101.913C83.3426 281.923 65.4976 274.726 52.1137 261.852C38.7298 248.978 30.8447 231.426 30.1092 212.87C29.3737 194.314 35.8448 176.193 48.1677 162.301C60.4906 148.408 77.71 139.821 96.221 138.337C98.8608 119.697 107.278 102.354 120.289 88.747C133.299 75.1403 150.248 65.955 168.752 62.4834C187.255 59.0118 206.381 61.4286 223.439 69.3937C240.497 77.3589 254.628 90.4716 263.845 106.887C280.75 101.035 299.015 100.351 316.31 104.923C333.605 109.494 349.146 119.113 360.952 132.554C372.757 145.994 380.292 162.647 382.594 180.387C384.896 198.127 381.862 216.151 373.879 232.16C369.194 246.625 360.047 259.233 347.751 268.176C335.455 277.119 320.641 281.937 305.437 281.937H293.345Z" fill="url(#paint0_linear_240_5461)"/>
<path d="M305.437 280.937C313.157 280.937 320.748 279.704 327.998 277.273C335.009 274.922 341.59 271.491 347.56 267.076C353.462 262.712 358.635 257.484 362.936 251.537C367.29 245.517 370.652 238.894 372.928 231.852L372.951 231.78L372.985 231.712C376.011 225.665 378.341 219.267 379.911 212.698C381.526 205.937 382.345 198.952 382.345 191.937C382.345 185.897 381.737 179.862 380.537 173.999C379.368 168.285 377.623 162.665 375.352 157.294C373.121 152.021 370.361 146.935 367.146 142.177C363.962 137.464 360.306 133.032 356.278 129.004C352.25 124.976 347.819 121.32 343.106 118.136C338.348 114.921 333.261 112.161 327.988 109.93C322.617 107.659 316.997 105.914 311.283 104.745C305.42 103.545 299.385 102.937 293.345 102.937C283.346 102.937 273.531 104.582 264.172 107.828L263.383 108.102L262.973 107.373C255.357 93.8313 244.279 82.4587 230.937 74.4849C224.189 70.4523 216.94 67.3361 209.391 65.2227C201.602 63.0425 193.512 61.937 185.345 61.937C174.361 61.937 163.638 63.914 153.475 67.8131C143.657 71.5797 134.65 77.0207 126.705 83.985C118.806 90.9092 112.251 99.0792 107.221 108.268C102.069 117.682 98.7006 127.844 97.2113 138.472L97.0998 139.267L96.299 139.33C87.3408 140.031 78.7219 142.39 70.6818 146.34C62.8694 150.179 55.8932 155.371 49.947 161.771C37.7289 174.924 31 192.06 31 210.024C31 219.597 32.8748 228.884 36.5723 237.626C38.3495 241.828 40.5491 245.88 43.1102 249.671C45.6472 253.426 48.5607 256.957 51.7699 260.167C54.9791 263.376 58.5104 266.289 62.2655 268.826C66.0565 271.387 70.109 273.587 74.3106 275.364C83.0525 279.062 92.3391 280.937 101.913 280.937H293.345H305.437ZM305.437 281.937H293.345H101.913C62.1966 281.937 30 249.74 30 210.024C30 172.223 59.1646 141.234 96.221 138.333C102.35 94.5944 139.917 60.937 185.345 60.937C219.048 60.937 248.422 79.4602 263.845 106.883C273.087 103.678 283.012 101.937 293.345 101.937C343.051 101.937 383.345 142.231 383.345 191.937C383.345 206.393 379.936 220.055 373.879 232.16C364.544 261.045 337.431 281.937 305.437 281.937Z" fill="white" fill-opacity="0.5"/>
</g>
</g>
<defs>
<filter id="filter0_f_240_5461" x="5.64795" y="12.763" width="381.698" height="368.336" filterUnits="userSpaceOnUse" color-interpolation-filters="sRGB">
<feFlood flood-opacity="0" result="BackgroundImageFix"/>
<feBlend mode="normal" in="SourceGraphic" in2="BackgroundImageFix" result="shape"/>
<feGaussianBlur stdDeviation="2" result="effect1_foregroundBlur_240_5461"/>
</filter>
<filter id="filter1_f_240_5461" x="0.577637" y="0.303223" width="164.15" height="133.561" filterUnits="userSpaceOnUse" color-interpolation-filters="sRGB">
<feFlood flood-opacity="0" result="BackgroundImageFix"/>
<feBlend mode="normal" in="SourceGraphic" in2="BackgroundImageFix" result="shape"/>
<feGaussianBlur stdDeviation="10" result="effect1_foregroundBlur_240_5461"/>
</filter>
<filter id="filter2_d_240_5461" x="10" y="32.937" width="413.345" height="281" filterUnits="userSpaceOnUse" color-interpolation-filters="sRGB">
<feFlood flood-opacity="0" result="BackgroundImageFix"/>
<feColorMatrix in="SourceAlpha" type="matrix" values="0 0 0 0 0 0 0 0 0 0 0 0 0 0 0 0 0 0 127 0" result="hardAlpha"/>
<feOffset dx="10" dy="2"/>
<feGaussianBlur stdDeviation="15"/>
<feColorMatrix type="matrix" values="0 0 0 0 0.258824 0 0 0 0 0.627451 0 0 0 0 0.941176 0 0 0 0.596 0"/>
<feBlend mode="normal" in2="BackgroundImageFix" result="effect1_dropShadow_240_5461"/>
<feBlend mode="normal" in="SourceGraphic" in2="effect1_dropShadow_240_5461" result="shape"/>
</filter>
<linearGradient id="paint0_linear_240_5461" x1="206.698" y1="60.9395" x2="309.341" y2="309.103" gradientUnits="userSpaceOnUse">
<stop stop-color="white" stop-opacity="0.604"/>
<stop offset="1" stop-color="white" stop-opacity="0.2"/>
</linearGradient>
</defs>
</svg>
